<svg xmlns="http://www.w3.org/2000/svg" xmlns:xlink="http://www.w3.org/1999/xlink" viewBox="0,0,256,256" width="64px" height="64px" fill-rule="nonzero"><defs><linearGradient x1="32" y1="5.5" x2="32" y2="59.251" gradientUnits="userSpaceOnUse" id="color-1"><stop offset="0" stop-color="#66c05d"></stop><stop offset="1" stop-color="#66c05d"></stop></linearGradient><linearGradient x1="31" y1="23.333" x2="31" y2="43.616" gradientUnits="userSpaceOnUse" id="color-2"><stop offset="0" stop-color="#66c05d"></stop><stop offset="1" stop-color="#66c05d"></stop></linearGradient></defs><g fill="none" fill-rule="nonzero" stroke="none" stroke-width="1" stroke-linecap="butt" stroke-linejoin="miter" stroke-miterlimit="10" stroke-dasharray="" stroke-dashoffset="0" font-family="none" font-weight="none" font-size="none" text-anchor="none" style="mix-blend-mode: normal"><g transform="scale(4,4)"><path d="M32,58c-14.336,0 -26,-11.663 -26,-26c0,-14.337 11.664,-26 26,-26c14.336,0 26,11.663 26,26c0,14.337 -11.664,26 -26,26zM32,8c-13.233,0 -24,10.767 -24,24c0,13.233 10.767,24 24,24c13.233,0 24,-10.767 24,-24c0,-13.233 -10.767,-24 -24,-24z" fill="url(#color-1)"></path><path d="M40.975,32.906c0,0 3.974,-5.822 4.369,-7.664c0.133,-0.658 -0.156,-1.242 -0.842,-1.242c0,0 -2.29,0 -3.448,0c-0.79,0 -1.079,0.558 -1.316,1.058c0,0 -1.864,4.08 -4.132,6.583c-0.728,0.809 -0.914,1.107 -1.316,1.107c-0.324,0 -0.29,-0.216 -0.29,-0.946v-6.396c0,-0.896 -0.472,-1.406 -1.209,-1.406h-5.527c-0.421,0 -0.618,0.368 -0.618,0.702c0,0.843 1.356,1.156 1.356,3.44v4.711c0,0.948 -0.119,1.316 -0.566,1.316c-1.184,0 -4.034,-4.203 -5.613,-8.836c-0.318,-0.946 -0.693,-1.333 -1.587,-1.333h-3.448c-0.5,0 -0.869,0.466 -0.869,0.966c0,0.921 1.079,5.247 5.317,10.959c2.843,3.843 6.711,5.953 10.08,5.953c2.053,0 2.684,-0.311 2.684,-1.18v-2.948c0,-0.737 0.158,-1.053 0.579,-1.053c0.474,0 1.244,0.198 3.198,2.125c2.318,2.211 2.41,3.178 3.673,3.178h3.869c0.395,0 0.763,-0.23 0.763,-0.888c0,-0.869 -1.132,-2.444 -2.869,-4.287c-0.711,-0.947 -1.869,-1.985 -2.237,-2.459c-0.526,-0.553 -0.369,-0.881 -0.001,-1.46z" fill="url(#color-2)"></path></g></g></svg>